<svg version="1.1" xmlns="http://www.w3.org/2000/svg" viewBox="0 0 249.45 552.76">
<style type="text/css">
    .outline{fill:none;stroke:#8B4513;stroke-miterlimit:10;}
    .circle-fill{opacity:0.25;fill:#CD853F;enable-background:new;}
    .circle-stroke{fill:none;stroke:#8B4513;stroke-miterlimit:10;}
    .dashed-large{fill:none;stroke:#8B4513;stroke-miterlimit:10;stroke-dasharray:3.01,3.01;}
    .dashed-small{fill:none;stroke:#8B4513;stroke-miterlimit:10;stroke-dasharray:1,2;}
   	.kidney{fill:none;stroke:#7F1D1D;stroke-width:0.75;stroke-miterlimit:10;}
</style>
<g>
    <g id="body_outline">
        <!-- Original body outline path -->
        <path class="outline" d="M107.98,85.71c0.43,4.83-0.69,9.68-3.2,13.83c0,0-4.09,8.31-22.41,9.3c0,0-19.5,0.19-22.19,26.63l-0.35,38.75
            c0,0-1.47,23-9.15,35.25c0,0-4.43,7.89-5,26.11c0,0-1.29,15.4-3,20.21c-1,2.81-4.71,7.59-7.56,11.12c-5.61,7-15,21.58-10,23.18
            c0,0,3.89,0.39,9.09-9.89c0,0-0.09,3.94-4.29,15.44c-0.8,2.16-4.29,13,1.35,9.1c0,0,2.58-1.79,6-13c0,0-1.8,18.86,0.17,19.81
            c2.66,1.28,4.13-2.42,5.29-19c0,0,1.22-5.32,1.79,15c0,1,1.59,6.27,3.72,1.81c1.79-3.72,1-13.67,1-17c0,0,2.35,12.86,4.48,12.86
            c0,0,2.53,3,1.53-12.95c-0.22-2.62,0.72-8,0.83-9.56l0.27-6.15c0,0-0.63-7-0.63-9.92c0-0.72,2.51-10.3,9.11-20.38
            c0,0,13.77-24.43,12.89-40.4c0,0-0.18-15.24,5.36-23.88c0,0,3.94,43.15,1.28,55.27c0,0-12.4,29.76-9.69,52
            c2,16.5,5.9,51.83,9.85,65.75c2,7.2,0.83,25.42,2.47,29.93c0.72,2,0.34,3.77-1.25,8.29c-5.57,15.65-4.85,26.63,9.14,68.14
            c0,0,4.3,9.17,2.12,25.69c0,0-8.93,18.38-3.19,18.75c0,0,0.47,1.22,2.38,0.25c0,0,3.07,3.16,6.42,1.47c0,0,3.1,2.44,5.73,0.29
            c1.39,1.44,3.63,1.64,5.25,0.45c0,0,4,2.69,6.42-0.25c0,0,4.32,1-3.35-18.36c0,0-2.94-20.47-4.52-24.47
            c-3.05-7.69-0.91-28.55-0.24-33.06c1-7.46,0.47-20.25-1.47-30.12c-1.38-7.09,2.44-20.45,3.82-28.65
            c2.91-17.31,8.58-61.47,7.87-69.8l2.33,0.83c1,0.01,1.98-0.28,2.82-0.83c-0.7,8.36,4.93,52.49,7.89,69.8
            c1.37,8.2,5.19,21.56,3.82,28.65c-1.94,9.87-2.51,22.66-1.47,30.12c0.67,4.51,2.84,25.39-0.24,33.06
            c-1.61,4-4.52,24.47-4.52,24.47c-7.67,19.33-3.35,18.36-3.35,18.36c2.38,2.94,6.45,0.25,6.45,0.25c1.62,1.16,3.85,0.97,5.25-0.45
            c2.63,2.19,5.7-0.29,5.7-0.29c3.36,1.69,6.42-1.47,6.42-1.47c1.91,1,2.37-0.25,2.37-0.25c5.73-0.36-3.19-18.75-3.19-18.75
            c-2.16-16.52,2.13-25.69,2.13-25.69c14-41.51,14.71-52.49,9.14-68.14c-1.61-4.49-2-6.32-1.25-8.29
            c1.67-4.51,0.44-22.73,2.49-29.93c3.94-13.91,7.82-49.23,9.84-65.75c2.71-22.21-9.67-52-9.67-52
            c-2.66-12.12,1.28-55.27,1.28-55.27c5.54,8.64,5.35,23.88,5.35,23.88c-0.92,16,12.87,40.4,12.87,40.4
            c6.63,10.11,9.14,19.68,9.14,20.38c0,2.92-0.63,9.92-0.63,9.92l0.25,6.15c0.11,1.58,1,6.94,0.83,9.56
            c-1,15.95,1.52,12.95,1.52,12.95c2.16,0,4.49-12.86,4.49-12.86c0,3.32-0.8,13.27,1,17c2.17,4.43,3.7-0.78,3.74-1.81
            c0.56-20.36,1.78-15,1.78-15c1.17,16.52,2.65,20.26,5.27,19c2-1,0.19-19.81,0.19-19.81c3.41,11.17,6,13,6,13
            c5.61,3.91,2.14-7,1.34-9.1c-4.18-11.5-4.27-15.44-4.27-15.44c5.16,10.31,9.08,9.89,9.08,9.89c5.14-1.6-4.32-16.17-9.89-23.18
            c-2.85-3.54-6.51-8.34-7.56-11.12c-1.74-4.81-3-20.21-3-20.21c-0.54-18.22-5-26.11-5-26.11c-7.68-12.32-9.12-35.25-9.12-35.25
            l-0.34-38.75c-2.73-26.44-22.24-26.59-22.24-26.59c-15.66-0.79-22.43-9.3-22.43-9.3c-3.66-5.25-2.68-11.55-2.29-13.83"/>
        <path class="outline" d="M128.98,91.88c7.7,0,14.89-9.88,14.89-9.88c3.3-3.81,4.8-10.3,4.8-10.3c5.76-4.41,5.51-10.87,2.85-10.79
            c-2.13,0-1.67-1.7-1.67-1.7c3.55-29-22.19-30.48-22.19-30.48c-1.62-0.16-3.25-0.16-4.87,0c0,0-25.74,1.47-22.19,30.48
            c0,0,0.45,1.75-1.67,1.7c-2.67-0.08-2.92,6.38,2.84,10.79c0,0,1.51,6.49,4.81,10.3c0,0,7.19,9.88,14.89,9.88"/>
        
        <!-- Central circles -->
        <circle class="circle-fill" cx="124.09" cy="228.24" r="29.17"/>
        <circle class="circle-stroke" cx="124.09" cy="228.24" r="29.17"/>
        <path class="dashed-large" d="M86.38,228.24c-0.01-21.18,17.16-38.35,38.34-38.36c50.86,2,50.84,74.67,0,76.68
            c-21.17,0-38.34-17.17-38.34-38.34V228.24z"/>
        <path class="dashed-small" d="M76.89,228.24c0-26.42,21.41-47.83,47.83-47.83l0,0c63.44,2.52,63.43,93.15,0,95.66
            c-26.41,0.01-47.82-21.4-47.83-47.81C76.89,228.25,76.89,228.25,76.89,228.24z"/>
        
        <!-- Left Kidney -->
        <g transform="translate(85,195) scale(0.5)">
            <path class="kidney" d="M47.81,50.49c2.67-4.48,2.65-9.38,2.65-9.38s1.28-13.74-13.26-19.3c0,0-14.59-7.07-25.18,10.17
                c0,0-15.03,20.76-2.65,52.14c0,0,8.35,21.47,27.83,13.7c0,0,15.03-7.51,11.93-22.09c0,0-1.33-4.27-3.24-7.22
                c-0.78-1.2-1.58-3.28-1.97-5.61"/>
            <path class="kidney" d="M31.83,66.53c0,0,2.2-9.67,12.18-9.67c13.44,0,13.44,11.11,13.44,11.11v39.21"/>
            <path class="kidney" d="M38.66,58.14c0,0-5.96-2.65-9.5-7.96"/>
        </g>
        
        <!-- Right Kidney -->
        <g transform="translate(100,195) scale(0.5)">
            <path class="kidney" d="M79.75,50.49c-2.67-4.48-2.65-9.38-2.65-9.38s-1.28-13.74,13.26-19.3c0,0,14.59-7.07,25.18,10.17
                c0,0,15.03,20.76,2.65,52.14c0,0-8.35,21.47-27.83,13.7c0,0-15.03-7.51-11.93-22.09c0,0,1.33-4.27,3.24-7.22
                c0.78-1.2,1.58-3.28,1.97-5.61"/>
            <path class="kidney" d="M95.73,66.53c0,0-2.2-9.67-12.18-9.67c-13.44,0-13.44,11.11-13.44,11.11v39.21"/>
            <path class="kidney" d="M88.89,58.14c0,0,5.96-2.65,9.5-7.96"/>
        </g>
    </g>
</g>
</svg>