<?xml version="1.0" encoding="utf-8"?>
<!-- Generator: Adobe Illustrator 26.0.2, SVG Export Plug-In . SVG Version: 6.00 Build 0)  -->
<svg version="1.1" id="Layer_1" xmlns="http://www.w3.org/2000/svg" xmlns:xlink="http://www.w3.org/1999/xlink" x="0px" y="0px"
	 viewBox="0 0 127.56 127.56" style="enable-background:new 0 0 127.56 127.56;" xml:space="preserve">
<style type="text/css">
	.st0{fill:none;stroke:#B381AE;stroke-width:0.75;stroke-miterlimit:10;}
</style>
<g>
	<g>
		<path class="st0" d="M79.75,50.49c-2.67-4.48-2.65-9.38-2.65-9.38s-1.28-13.74,13.26-19.3c0,0,14.59-7.07,25.18,10.17
			c0,0,15.03,20.76,2.65,52.14c0,0-8.35,21.47-27.83,13.7c0,0-15.03-7.51-11.93-22.09c0,0,1.33-4.27,3.24-7.22
			c0.78-1.2,1.58-3.28,1.97-5.61"/>
		<path class="st0" d="M95.73,66.53c0,0-2.2-9.67-12.18-9.67c-13.44,0-13.44,11.11-13.44,11.11v39.21"/>
		<path class="st0" d="M88.89,58.14c0,0,5.96-2.65,9.5-7.96"/>
	</g>
	<g>
		<path class="st0" d="M47.81,50.49c2.67-4.48,2.65-9.38,2.65-9.38s1.28-13.74-13.26-19.3c0,0-14.59-7.07-25.18,10.17
			c0,0-15.03,20.76-2.65,52.14c0,0,8.35,21.47,27.83,13.7c0,0,15.03-7.51,11.93-22.09c0,0-1.33-4.27-3.24-7.22
			c-0.78-1.2-1.58-3.28-1.97-5.61"/>
		<path class="st0" d="M31.83,66.53c0,0,2.2-9.67,12.18-9.67c13.44,0,13.44,11.11,13.44,11.11v39.21"/>
		<path class="st0" d="M38.66,58.14c0,0-5.96-2.65-9.5-7.96"/>
	</g>
</g>
</svg>
